Coordinates
version=1
nRows=26
nColumns=18
inDegrees=yes

Units are S.I. units (second, meters, Newtons, ...)
Angles are in degrees.

endheader
time	pelvis_tilt	pelvis_list	pelvis_rot	pelvis_tx	pelvis_ty	pelvis_tz	hip_flexion_r	hip_adduction_r	hip_rotation_r	knee_angle_r	ankle_angle_r	hip_flexion_l	hip_adduction_l	hip_rotation_l	knee_angle_l	ankle_angle_l	lumbar_extension
      3.05000000	     -1.35603661	      0.00000000	      0.00000000	     -0.98854627	      0.92561422	     -0.20740835	      2.80742798	      0.00000000	      0.00000000	    -16.15977412	      8.58625639	     26.62577159	      0.00000000	      0.00000000	    -48.57850056	     -1.16364924	     -4.93998008
      3.06000000	     -1.17600614	      0.00000000	      0.00000000	     -0.97725246	      0.92508261	     -0.20747595	      1.53269276	      0.00000000	      0.00000000	    -15.57747494	      8.98015440	     26.87485987	      0.00000000	      0.00000000	    -45.63701760	     -0.84656992	     -5.25488791
      3.07000000	     -0.97621066	      0.00000000	      0.00000000	     -0.96582336	      0.92439643	     -0.20762445	      0.22338634	      0.00000000	      0.00000000	    -15.00390175	      9.37650889	     27.01565570	      0.00000000	      0.00000000	    -42.58849528	     -0.60681473	     -5.54413733
      3.08000000	     -0.76755856	      0.00000000	      0.00000000	     -0.95427302	      0.92356806	     -0.20784915	     -1.10141275	      0.00000000	      0.00000000	    -14.45411025	      9.77606893	     27.06373214	      0.00000000	      0.00000000	    -39.45164098	     -0.41870149	     -5.80568354
      3.09000000	     -0.56429645	      0.00000000	      0.00000000	     -0.94261217	      0.92260256	     -0.20812654	     -2.41452723	      0.00000000	      0.00000000	    -13.94817508	     10.17763320	     27.03958451	      0.00000000	      0.00000000	    -36.25468286	     -0.25426347	     -6.03400620
      3.10000000	     -0.38182676	      0.00000000	      0.00000000	     -0.93084789	      0.92149525	     -0.20843095	     -3.68475098	      0.00000000	      0.00000000	    -13.50797379	     10.57677727	     26.96571787	      0.00000000	      0.00000000	    -33.03331467	     -0.09018468	     -6.22011955
      3.11000000	     -0.23480690	      0.00000000	      0.00000000	     -0.91898324	      0.92023388	     -0.20877662	     -4.88132881	      0.00000000	      0.00000000	    -13.15435904	     10.96544591	     26.86452897	      0.00000000	      0.00000000	    -29.82821834	      0.08917920	     -6.35331384
      3.12000000	     -0.13529739	      0.00000000	      0.00000000	     -0.90701817	      0.91880192	     -0.20923134	     -5.97828779	      0.00000000	      0.00000000	    -12.90468654	     11.33245316	     26.75636687	      0.00000000	      0.00000000	    -26.68293745	      0.29138849	     -6.42397264
      3.13000000	     -0.09136467	      0.00000000	      0.00000000	     -0.89495214	      0.91719467	     -0.20985775	     -6.95836525	      0.00000000	      0.00000000	    -12.77106619	     11.66478495	     26.65730556	      0.00000000	      0.00000000	    -23.64318954	      0.51644113	     -6.42647022
      3.14000000	     -0.10580407	      0.00000000	      0.00000000	     -0.88278050	      0.91544887	     -0.21060753	     -7.81566696	      0.00000000	      0.00000000	    -12.75962172	     11.94943769	     26.57685850	      0.00000000	      0.00000000	    -20.75811823	      0.75683567	     -6.36119210
      3.15000000	     -0.17437550	      0.00000000	      0.00000000	     -0.87049526	      0.91364513	     -0.21129978	     -8.55634119	      0.00000000	      0.00000000	    -12.87091646	     12.17541663	     26.51673700	      0.00000000	      0.00000000	    -18.08263455	      0.99662484	     -6.23499045
      3.16000000	     -0.28423622	      0.00000000	      0.00000000	     -0.85809726	      0.91185823	     -0.21180687	     -9.19715695	      0.00000000	      0.00000000	    -13.10141600	     12.33541769	     26.47167118	      0.00000000	      0.00000000	    -15.67901369	      1.20990042	     -6.05984651
      3.17000000	     -0.41474923	      0.00000000	      0.00000000	     -0.84559175	      0.91012578	     -0.21220486	     -9.76175427	      0.00000000	      0.00000000	    -13.44522223	     12.42662907	     26.43213263	      0.00000000	      0.00000000	    -13.61604077	      1.35992396	     -5.85014570
      3.18000000	     -0.54247191	      0.00000000	      0.00000000	     -0.83296438	      0.90848435	     -0.21262194	    -10.27519525	      0.00000000	      0.00000000	    -13.89548322	     12.45011895	     26.38806735	      0.00000000	      0.00000000	    -11.96464847	      1.40043824	     -5.61949545
      3.19000000	     -0.64869048	      0.00000000	      0.00000000	     -0.82017222	      0.90699282	     -0.21306195	    -10.75829675	      0.00000000	      0.00000000	    -14.44562559	     12.40847646	     26.33309402	      0.00000000	      0.00000000	    -10.78986830	      1.28042484	     -5.37816121
      3.20000000	     -0.72550802	      0.00000000	      0.00000000	     -0.80715433	      0.90568573	     -0.21344245	    -11.22267574	      0.00000000	      0.00000000	    -15.09073329	     12.30173092	     26.26865367	      0.00000000	      0.00000000	    -10.14033685	      0.95272117	     -5.13190486
      3.21000000	     -0.77760493	      0.00000000	      0.00000000	     -0.79385421	      0.90451096	     -0.21370052	    -11.66713661	      0.00000000	      0.00000000	    -15.82924583	     12.12208377	     26.20698232	      0.00000000	      0.00000000	    -10.03806519	      0.38560349	     -4.88237749
      3.22000000	     -0.81867090	      0.00000000	      0.00000000	     -0.78026559	      0.90333998	     -0.21383354	    -12.07622006	      0.00000000	      0.00000000	    -16.66506849	     11.84857635	     26.17181098	      0.00000000	      0.00000000	    -10.47146139	     -0.42508873	     -4.62854970
      3.23000000	     -0.86381081	      0.00000000	      0.00000000	     -0.76647665	      0.90208095	     -0.21388940	    -12.42147622	      0.00000000	      0.00000000	    -17.60989692	     11.44328986	     26.19560674	      0.00000000	      0.00000000	    -11.39366258	     -1.44700684	     -4.36832976
      3.24000000	     -0.92232366	      0.00000000	      0.00000000	     -0.75264787	      0.90081135	     -0.21395069	    -12.66534818	      0.00000000	      0.00000000	    -18.68494461	     10.85079134	     26.31133751	      0.00000000	      0.00000000	    -12.72681876	     -2.60949802	     -4.09967896
      3.25000000	     -0.99618029	      0.00000000	      0.00000000	     -0.73892532	      0.89977782	     -0.21410146	    -12.76703905	      0.00000000	      0.00000000	    -19.92072580	     10.00215834	     26.53807522	      0.00000000	      0.00000000	    -14.37112134	     -3.81129932	     -3.82103584
      3.26000000	     -1.08486302	      0.00000000	      0.00000000	     -0.72537935	      0.89922457	     -0.21437714	    -12.68964736	      0.00000000	      0.00000000	    -21.35371654	      8.82407735	     26.86598833	      0.00000000	      0.00000000	    -16.21514744	     -4.93637001	     -3.53137556
      3.27000000	     -1.18994069	      0.00000000	      0.00000000	     -0.71200439	      0.89920701	     -0.21475338	    -12.40723744	      0.00000000	      0.00000000	    -23.01976100	      7.25238866	     27.25202176	      0.00000000	      0.00000000	    -18.14375176	     -5.87279193	     -3.23044398
      3.28000000	     -1.31329600	      0.00000000	      0.00000000	     -0.69873075	      0.89956099	     -0.21518357	    -11.90919433	      0.00000000	      0.00000000	    -24.94538815	      5.24822567	     27.63172360	      0.00000000	      0.00000000	    -20.04401010	     -6.52913753	     -2.91949832
      3.29000000	     -1.45246712	      0.00000000	      0.00000000	     -0.68545537	      0.90004524	     -0.21563123	    -11.19942942	      0.00000000	      0.00000000	    -27.13934547	      2.81376292	     27.93841732	      0.00000000	      0.00000000	    -21.81420200	     -6.84526603	     -2.60241230
      3.30000000	     -1.59970299	      0.00000000	      0.00000000	     -0.67211931	      0.90051909	     -0.21606914	    -10.29095330	      0.00000000	      0.00000000	    -29.58763814	      0.00382108	     28.11715525	      0.00000000	      0.00000000	    -23.37706159	     -6.79717453	     -2.28659731
